# xmcd
#
# Track frame offsets:
#	187
#	21085
#	39350
#	57577
#	76637
#	91427
#	112685
#	130240
#	151415
#	161630
#
# Disc length: 2426 seconds
#
# Revision: 3
# Processed by: cddbd v1.4PL0 Copyright (c) Steve Scherf et al.
# Submitted via: audiograbber 1.81.01
#
DISCID=6e09780a
DTITLE=John Mayall - The Last of the British Blues
DYEAR=1978
DGENRE=Blues
TTITLE0=Tucson Lady
TTITLE1=Parchman Farm
TTITLE2=There's Only Now
TTITLE3=The Teaser
TTITLE4=Hideaway
TTITLE5=The Bear
TTITLE6=Lonely Birthday
TTITLE7=Lowdown Blues
TTITLE8=Another Man
TTITLE9=It Must Be Three
EXTD=Recorded Live from Baltimore, Cincinnati and New York\n\nJohn Mayall - voc
EXTD=als, harmonica, clavinet, guitar\nJames Quill Smith - lead guitar, vocals
EXTD=\nSteve Thompson - bass guitar\nSoko Richardson - drums\n\nPepper Watkins,
EXTD=Marty Gwynn, Donna Washburn, Marilyn\nScott, Judy Brown, Coleen and Mauree
EXTD=n - backing vocals
EXTT0=
EXTT1=
EXTT2=
EXTT3=
EXTT4=
EXTT5=
EXTT6=
EXTT7=
EXTT8=A short, but awesome harmonica blues tune\n
EXTT9=
PLAYORDER=
